# xmcd
#
# Track frame offsets: 
#        150
#        15861
#        32663
#        56540
#        72371
#        89395
#        112700
#        136834
#        164678
#        182449
#        200578
#        224234
#        244564
#        274961
#        289867
#        310919
#        332653
#
# Disc length: 4815 seconds
#
# Revision: 2
# Processed by: cddbd v1.5.2PL0 Copyright (c) Steve Scherf et al.
# Submitted via: ExactAudioCopy v0.95a5
#
DISCID=f512cd11
DTITLE=Various Artist - Blues On the Road  CD-4
DYEAR=2004
DGENRE=Blues
TTITLE0=I'll Be Home Again Tonight - BLUES BAND
TTITLE1=Hard Time in the Plenty - BO WILSON BAND
TTITLE2=Goodbye - TONY SPINNER
TTITLE3=Pocket Full of Money - STEVE BAILEY
TTITLE4=Ice of Fire - BOB MARGOLIN
TTITLE5=Blow By Blow - KEVIN THORPE
TTITLE6=Lost Two Dollars - TINO GONSALES
TTITLE7=So Many Roads - JOHN MAYALL
TTITLE8=Swamp Stompin' - BIG ED SULLIVAN
TTITLE9=Dark of the Night - SCOTT HOLT
TTITLE10=Old Friend - CRIS ANDERSON
TTITLE11=Women Have a Way with a Full - COCO MONTOYA
TTITLE12=Hurrycane Blues - ROGER HURRYCANE
TTITLE13=Hair of the Dog - AMOS GARRETT
TTITLE14=Broken Hearted Road - SONNY LANDRETH
TTITLE15=Straight Up - CUP-A-JO
TTITLE16=First Come, First Served - DAVE GOODMAN and GARTH WEBBER
EXTD=
EXTT0=
EXTT1=
EXTT2=
EXTT3=
EXTT4=
EXTT5=
EXTT6=
EXTT7=
EXTT8=
EXTT9=
EXTT10=
EXTT11=
EXTT12=
EXTT13=
EXTT14=
EXTT15=
EXTT16=
PLAYORDER=
